HIERARCHY
ROOT Pelvis
{
	OFFSET 0.000000 0.000000 0.000000
	CHANNELS 6 Xposition Yposition Zposition Xrotation Yrotation Zrotation
	JOINT LeftUpLeg_virtual
	{
		OFFSET 0.000000 0.000000 0.000000
		CHANNELS 3 Xrotation Yrotation Zrotation
		JOINT LeftUpLeg
		{
			OFFSET 18.735201 -5.666702 -4.541200
			CHANNELS 3 Xrotation Yrotation Zrotation
			JOINT LeftLeg
			{
				OFFSET -0.021200 -31.938179 0.493100
				CHANNELS 3 Xrotation Yrotation Zrotation
				JOINT LeftFoot
				{
					OFFSET 0.021200 -31.938179 -4.336299
					CHANNELS 3 Xrotation Yrotation Zrotation
					JOINT LeftToeBase
					{
						OFFSET 0.943001 -26.722000 15.023500
						CHANNELS 3 Xrotation Yrotation Zrotation
						End Site
						{
							OFFSET 0 0 0
						}
					}
				}
			}
		}
	}
	JOINT RightUpLeg_virtual
	{
		OFFSET 0.000000 0.000000 0.000000
		CHANNELS 3 Xrotation Yrotation Zrotation
		JOINT RightUpLeg
		{
			OFFSET -18.735201 -5.666702 -4.541200
			CHANNELS 3 Xrotation Yrotation Zrotation
			JOINT RightLeg
			{
				OFFSET 0.018946 -31.938133 0.493100
				CHANNELS 3 Xrotation Yrotation Zrotation
				JOINT RightFoot
				{
					OFFSET -0.018946 -31.938126 -4.336299
					CHANNELS 3 Xrotation Yrotation Zrotation
					JOINT RightToeBase
					{
						OFFSET -0.943001 -26.722004 15.023500
						CHANNELS 3 Xrotation Yrotation Zrotation
						End Site
						{
							OFFSET 0 0 0
						}
					}
				}
			}
		}
	}
	JOINT Hips_virtual
	{
		OFFSET 0.000000 0.000000 0.000000
		CHANNELS 3 Xrotation Yrotation Zrotation
		JOINT Hips
		{
			OFFSET -0.000000 -0.000000 -0.000000
			CHANNELS 3 Xrotation Yrotation Zrotation
			JOINT Spine
			{
				OFFSET 0.000000 10.199997 -0.299500
				CHANNELS 3 Xrotation Yrotation Zrotation
				JOINT Spine1
				{
					OFFSET 0.000000 11.900002 -1.516600
					CHANNELS 3 Xrotation Yrotation Zrotation
					JOINT Spine2
					{
						OFFSET 0.000000 13.600006 -2.842500
						CHANNELS 3 Xrotation Yrotation Zrotation
						JOINT Neck_virtual
						{
							OFFSET 0.000000 0.000000 0.000000
							CHANNELS 3 Xrotation Yrotation Zrotation
							JOINT Neck
							{
								OFFSET 0.000000 9.624100 -2.890100
								CHANNELS 3 Xrotation Yrotation Zrotation
								JOINT Head
								{
									OFFSET 0.000000 14.068802 -1.351900
									CHANNELS 3 Xrotation Yrotation Zrotation
									End Site
									{
										OFFSET 0 0 0
									}
								}
							}
						}
						JOINT LeftShoulder_virtual
						{
							OFFSET 0.000000 0.000000 0.000000
							CHANNELS 3 Xrotation Yrotation Zrotation
							JOINT LeftShoulder
							{
								OFFSET 15.263000 10.923401 -0.547700
								CHANNELS 3 Xrotation Yrotation Zrotation
								JOINT LeftArm
								{
									OFFSET 25.438599 -2.830597 -13.032500
									CHANNELS 3 Xrotation Yrotation Zrotation
									JOINT LeftForeArm
									{
										OFFSET 29.960503 0.000000 0.000000
										CHANNELS 3 Xrotation Yrotation Zrotation
										JOINT LeftHand
										{
											OFFSET 27.849251 0.000000 0.000000
											CHANNELS 3 Xrotation Yrotation Zrotation
											End Site
											{
												OFFSET 0 0 0
											}
										}
									}
								}
							}
						}
						JOINT RightShoulder_virtual
						{
							OFFSET 0.000000 0.000000 0.000000
							CHANNELS 3 Xrotation Yrotation Zrotation
							JOINT RightShoulder
							{
								OFFSET -15.263000 10.923401 -0.547700
								CHANNELS 3 Xrotation Yrotation Zrotation
								JOINT RightArm
								{
									OFFSET -25.438599 -2.830597 -13.032500
									CHANNELS 3 Xrotation Yrotation Zrotation
									JOINT RightForeArm
									{
										OFFSET -29.960503 0.000000 0.000000
										CHANNELS 3 Xrotation Yrotation Zrotation
										JOINT RightHand
										{
											OFFSET -27.849251 0.000000 0.000000
											CHANNELS 3 Xrotation Yrotation Zrotation
											End Site
											{
												OFFSET 0 0 0
											}
										}
									}
								}
							}
						}
					}
				}
			}
		}
	}
}
MOTION
Frames: 6
Frame Time: 0.03333333
-2.784461 87.826920 2.834686 0.000000 0.000000 0.000000 -6.078111 -42.937991 -3.787950 -34.518892 3.256228 16.624643 38.581597 -16.721317 -0.500580 -1.753255 2.465424 -10.669571 0.000000 0.000000 0.000000 -6.078111 -42.937991 -3.787950 1.066352 -13.655870 -18.455161 33.775706 -7.734634 -0.246107 -25.579998 -6.495543 21.368494 0.000000 0.000000 0.000000 -6.078111 -42.937991 -3.787950 0.000001 0.000003 -0.000000 5.850903 4.525535 -1.457856 11.836802 9.036870 -3.086776 0.000000 0.000000 0.000000 11.836811 9.036864 -3.086782 -0.805196 -0.192662 0.082042 0.000000 0.000000 0.000000 11.836811 9.036864 -3.086782 1.392489 -0.696039 -7.877868 -14.270857 2.385511 -63.280746 9.855317 -47.499342 5.919335 0.000000 0.000000 0.000000 11.836811 9.036864 -3.086782 1.409764 9.464717 9.801442 1.234166 -24.280868 60.535536 -6.660173 41.889007 8.039900 0.000000 0.000000 0.000000 
-2.703954 87.683487 2.485493 0.000000 0.000000 0.000000 -4.762718 -41.647451 -3.408774 -36.911326 3.790217 16.858966 39.155180 -15.042163 0.704710 -0.725731 0.766127 -10.566198 0.000000 0.000000 0.000000 -4.762718 -41.647451 -3.408774 0.414304 -13.729463 -17.771744 33.960824 -7.497993 -0.051209 -25.695477 -6.406252 21.299349 0.000000 0.000000 0.000000 -4.762718 -41.647451 -3.408774 0.000000 -0.000001 0.000000 5.898081 4.439277 -1.427233 11.918894 8.877100 -2.961021 0.000000 0.000000 0.000000 11.918891 8.877119 -2.961028 -0.878854 -0.247962 0.034659 0.000000 0.000000 0.000000 11.918891 8.877119 -2.961028 1.570214 -1.339777 -7.270731 -11.927845 2.709219 -62.623860 11.392382 -50.094902 6.156095 0.000000 0.000000 0.000000 11.918891 8.877119 -2.961028 1.547680 9.347146 9.092342 0.556997 -22.906434 60.241367 -3.542690 42.903898 5.840067 0.000000 0.000000 0.000000 
-2.620666 87.492950 2.086020 0.000000 0.000000 0.000000 -3.369625 -40.356856 -3.164731 -39.472408 3.883674 17.472322 39.638149 -12.924207 1.508139 0.354788 -1.090600 -10.552216 0.000000 0.000000 0.000000 -3.369625 -40.356856 -3.164731 -0.741355 -14.599108 -16.691463 34.274156 -6.719453 -0.994172 -25.667398 -6.375889 21.548453 0.000000 0.000000 0.000000 -3.369625 -40.356856 -3.164731 0.000000 -0.000003 0.000000 5.948043 4.338493 -1.374767 12.004171 8.695477 -2.784135 0.000000 0.000000 0.000000 12.004169 8.695493 -2.784138 -0.879804 -0.288345 -0.052779 0.000000 0.000000 0.000000 12.004169 8.695493 -2.784138 1.744172 -1.717846 -6.596196 -9.656322 2.899157 -62.029299 12.853445 -52.487036 6.201635 0.000000 0.000000 0.000000 12.004169 8.695493 -2.784138 1.665585 8.672810 8.386894 -0.517100 -21.343895 59.835053 -0.867269 43.424055 3.841164 0.000000 0.000000 0.000000 
-2.551419 87.234726 1.635120 0.000000 0.000000 0.000000 -1.926738 -39.068750 -2.984872 -42.273403 4.003568 18.362383 40.147401 -10.582295 2.182650 1.366972 -3.212216 -10.483644 0.000000 0.000000 0.000000 -1.926738 -39.068750 -2.984872 -2.186750 -15.585175 -15.475388 34.945638 -5.836407 -2.278849 -25.727396 -6.384735 21.924996 0.000000 0.000000 0.000000 -1.926738 -39.068750 -2.984872 0.000000 0.000001 0.000000 6.002224 4.228822 -1.329839 12.097065 8.496684 -2.607073 0.000000 0.000000 0.000000 12.097062 8.496696 -2.607070 -0.878671 -0.324797 -0.131032 0.000000 0.000000 0.000000 12.097062 8.496696 -2.607070 1.920547 -2.204490 -5.946348 -7.362923 3.228196 -61.378259 14.333922 -54.674025 6.292108 0.000000 0.000000 0.000000 12.097062 8.496696 -2.607070 1.789071 8.381568 7.651965 -1.251860 -20.026760 59.610592 1.393154 43.948555 1.818029 0.000000 0.000000 0.000000 
-2.500734 86.873978 1.086475 0.000000 0.000000 0.000000 -0.418335 -37.781963 -2.879503 -45.448670 4.231733 19.577725 40.742266 -8.210210 2.810679 2.389563 -5.467406 -10.363993 0.000000 0.000000 0.000000 -0.418335 -37.781963 -2.879503 -4.059108 -16.650352 -14.076319 36.215442 -4.894836 -3.965887 -25.952818 -6.447661 22.407084 0.000000 0.000000 0.000000 -0.418335 -37.781963 -2.879503 0.000000 0.000001 0.000000 6.079889 4.105300 -1.291101 12.238726 8.275164 -2.450792 0.000000 0.000000 0.000000 12.238726 8.275163 -2.450794 -0.941355 -0.355345 -0.185230 0.000000 0.000000 0.000000 12.238726 8.275163 -2.450794 2.070256 -2.775725 -5.543038 -4.738523 3.304522 -61.853374 16.932054 -58.793339 7.337195 0.000000 0.000000 0.000000 12.238726 8.275163 -2.450794 1.923287 8.317056 6.899306 -1.712081 -18.994032 59.533513 3.482608 44.694904 -0.233187 0.000000 0.000000 0.000000 
-2.468226 86.365768 0.486349 0.000000 0.000000 0.000000 1.167425 -36.497823 -2.849029 -49.046151 4.357705 21.079866 41.595811 -5.660229 3.293833 3.398528 -7.860165 -10.136611 0.000000 0.000000 0.000000 1.167425 -36.497823 -2.849029 -6.404450 -17.791748 -12.560049 38.208662 -3.944982 -6.043336 -26.388752 -6.539243 22.967046 0.000000 0.000000 0.000000 1.167425 -36.497823 -2.849029 0.000000 -0.000001 0.000000 6.177679 3.967660 -1.257442 12.423741 8.031128 -2.326811 0.000000 0.000000 0.000000 12.423731 8.031130 -2.326810 -1.083116 -0.387769 -0.199744 0.000000 0.000000 0.000000 12.423731 8.031130 -2.326810 2.231356 -3.137263 -4.963230 -2.821168 4.152014 -59.796845 16.440130 -59.385783 5.875489 0.000000 0.000000 0.000000 12.423731 8.031130 -2.326810 2.013498 7.787760 6.267048 -1.941703 -17.598549 59.487457 5.760900 45.734936 -2.468444 0.000000 0.000000 0.000000 
